<svg width="17" height="19" viewBox="0 0 17 19" fill="none" xmlns="http://www.w3.org/2000/svg">
<path fill-rule="evenodd" clip-rule="evenodd" d="M0.955306 18.2069C1.34413 17.3515 2.20134 16.0376 3.48675 14.9432C4.76686 13.8533 6.44777 13 8.50012 13C10.5525 13 12.2334 13.8533 13.5135 14.9432C14.7989 16.0376 15.6561 17.3515 16.0449 18.2069C16.1592 18.4583 16.4556 18.5695 16.707 18.4552C16.9584 18.3409 17.0696 18.0445 16.9553 17.7931C16.5108 16.8152 15.568 15.3791 14.1618 14.1818C12.7502 12.98 10.8478 12 8.50012 12C6.15247 12 4.25005 12.98 2.83849 14.1818C1.43224 15.3791 0.489452 16.8152 0.0449391 17.7931C-0.0693294 18.0445 0.0418301 18.3409 0.293221 18.4552C0.544612 18.5695 0.841037 18.4583 0.955306 18.2069Z" fill="#1A1A1A"/>
<circle cx="8.50146" cy="5.40771" r="4.90771" stroke="#1A1A1A"/>
</svg>
