<svg width="20" height="20" viewBox="0 0 20 20" fill="none" xmlns="http://www.w3.org/2000/svg">
<circle cx="10" cy="10" r="10" fill="#1A1A1A"/>
<path d="M10.4943 15.1392C9.83807 15.1392 9.25308 15.0265 8.73935 14.8011C8.22893 14.5758 7.82292 14.2625 7.52131 13.8615C7.22301 13.4571 7.06061 12.9882 7.03409 12.4545H8.28693C8.31345 12.7827 8.42614 13.0661 8.625 13.3047C8.82386 13.54 9.08404 13.7223 9.40554 13.8516C9.72704 13.9808 10.0833 14.0455 10.4744 14.0455C10.9119 14.0455 11.2997 13.9692 11.6378 13.8168C11.9759 13.6643 12.241 13.4522 12.4332 13.1804C12.6255 12.9086 12.7216 12.5938 12.7216 12.2358C12.7216 11.8613 12.6288 11.5315 12.4432 11.2464C12.2576 10.9581 11.9858 10.7327 11.6278 10.5703C11.2699 10.4079 10.8324 10.3267 10.3153 10.3267H9.5V9.23295H10.3153C10.7197 9.23295 11.0743 9.16004 11.3793 9.0142C11.6875 8.86837 11.9278 8.66288 12.1001 8.39773C12.2758 8.13258 12.3636 7.82102 12.3636 7.46307C12.3636 7.11837 12.2874 6.81842 12.1349 6.56321C11.9825 6.308 11.767 6.10914 11.4886 5.96662C11.2135 5.8241 10.8887 5.75284 10.5142 5.75284C10.1629 5.75284 9.83144 5.81747 9.51989 5.94673C9.21165 6.07268 8.95975 6.25663 8.7642 6.49858C8.56866 6.73722 8.46259 7.02557 8.44602 7.36364H7.25284C7.27273 6.83002 7.43348 6.36269 7.73509 5.96165C8.0367 5.55729 8.43111 5.24242 8.91832 5.01705C9.40885 4.79167 9.94744 4.67898 10.5341 4.67898C11.1638 4.67898 11.7041 4.80658 12.1548 5.06179C12.6056 5.31368 12.9519 5.64678 13.1939 6.06108C13.4358 6.47538 13.5568 6.92282 13.5568 7.40341C13.5568 7.9768 13.406 8.46567 13.1044 8.87003C12.8061 9.27438 12.4001 9.55445 11.8864 9.71023V9.78977C12.5294 9.89583 13.0315 10.1693 13.3928 10.6101C13.754 11.0476 13.9347 11.5895 13.9347 12.2358C13.9347 12.7893 13.7839 13.2865 13.4822 13.7273C13.1839 14.1648 12.7763 14.5095 12.2592 14.7614C11.7422 15.0133 11.1539 15.1392 10.4943 15.1392Z" fill="white"/>
</svg>
