<svg width="21" height="18" viewBox="0 0 21 18" fill="none" xmlns="http://www.w3.org/2000/svg">
<mask id="path-1-inside-1_2831_3788" fill="white">
<path fill-rule="evenodd" clip-rule="evenodd" d="M1.59248 1.58467C-0.520411 3.69756 -0.520411 7.12324 1.59248 9.23614L2.35632 9.99998L2.35501 10.0013L10.0065 17.6527L10.0078 17.6514L10.0091 17.6527L17.6606 10.0013L17.6593 9.99998L18.4231 9.23614C20.536 7.12324 20.536 3.69756 18.4231 1.58467C16.3102 -0.528223 12.8845 -0.528224 10.7716 1.58467L10.0078 2.34851L9.24395 1.58467C7.13105 -0.528224 3.70538 -0.528223 1.59248 1.58467Z"/>
</mask>
<path d="M1.59248 9.23614L0.885375 9.94324H0.885375L1.59248 9.23614ZM1.59248 1.58467L2.29959 2.29178L1.59248 1.58467ZM2.35632 9.99998L3.06349 10.707L3.77047 9.99991L3.06343 9.29287L2.35632 9.99998ZM2.35501 10.0013L1.64784 9.29424L0.940865 10.0013L1.64791 10.7084L2.35501 10.0013ZM10.0065 17.6527L9.29937 18.3599L10.0067 19.0672L10.7138 18.3596L10.0065 17.6527ZM10.0078 17.6514L10.7149 16.9443L10.0075 16.237L9.30042 16.9446L10.0078 17.6514ZM10.0091 17.6527L9.30199 18.3599L10.0091 19.067L10.7162 18.3599L10.0091 17.6527ZM17.6606 10.0013L18.3677 10.7084L19.0748 10.0013L18.3677 9.29418L17.6606 10.0013ZM17.6593 9.99998L16.9521 9.29287L16.245 9.99998L16.9521 10.7071L17.6593 9.99998ZM18.4231 9.23614L17.716 8.52903H17.716L18.4231 9.23614ZM18.4231 1.58467L17.716 2.29178L17.716 2.29178L18.4231 1.58467ZM10.7716 1.58467L10.0645 0.877562V0.877562L10.7716 1.58467ZM10.0078 2.34851L9.30068 3.05562L10.0078 3.76272L10.7149 3.05562L10.0078 2.34851ZM9.24395 1.58467L9.95105 0.877562V0.877562L9.24395 1.58467ZM2.29959 8.52903C0.57722 6.80666 0.57722 4.01415 2.29959 2.29178L0.885376 0.877564C-1.61804 3.38098 -1.61804 7.43982 0.885375 9.94324L2.29959 8.52903ZM3.06343 9.29287L2.29959 8.52903L0.885375 9.94324L1.64922 10.7071L3.06343 9.29287ZM1.64915 9.29293L1.64784 9.29424L3.06219 10.7083L3.06349 10.707L1.64915 9.29293ZM1.64791 10.7084L9.29937 18.3599L10.7136 16.9456L3.06212 9.29418L1.64791 10.7084ZM10.7138 18.3596L10.7152 18.3583L9.30042 16.9446L9.29912 16.9459L10.7138 18.3596ZM10.7162 16.9456L10.7149 16.9443L9.30068 18.3585L9.30199 18.3599L10.7162 16.9456ZM16.9535 9.29418L9.30199 16.9456L10.7162 18.3599L18.3677 10.7084L16.9535 9.29418ZM16.9521 10.7071L16.9535 10.7084L18.3677 9.29418L18.3664 9.29287L16.9521 10.7071ZM18.3664 10.7071L19.1302 9.94324L17.716 8.52903L16.9521 9.29287L18.3664 10.7071ZM19.1302 9.94324C21.6336 7.43983 21.6336 3.38098 19.1302 0.877564L17.716 2.29178C19.4384 4.01415 19.4384 6.80666 17.716 8.52903L19.1302 9.94324ZM19.1302 0.877564C16.6268 -1.62585 12.5679 -1.62586 10.0645 0.877562L11.4787 2.29178C13.2011 0.569407 15.9936 0.569408 17.716 2.29178L19.1302 0.877564ZM10.0645 0.877562L9.30068 1.6414L10.7149 3.05562L11.4787 2.29178L10.0645 0.877562ZM8.53684 2.29178L9.30068 3.05562L10.7149 1.6414L9.95105 0.877562L8.53684 2.29178ZM2.29959 2.29178C4.02196 0.569408 6.81447 0.569407 8.53684 2.29178L9.95105 0.877562C7.44764 -1.62586 3.38879 -1.62585 0.885376 0.877564L2.29959 2.29178Z" fill="#1A1A1A" mask="url(#path-1-inside-1_2831_3788)"/>
</svg>
